PathFileType        4      (X/Y/Z)      C:\Users\pc\Desktop\IMUTRC\Sujet_03\Sujet_03_velo_80.trc         
DataRate	CameraRate	NumFrames	NumMarkers	Units	OrigDataRate	OrigDataStartFrame	OrigNumFrames
60.0	60.0	4	64	mm	60.0	352	936
Frame#	Time	pHipOrigin			pRightASI			pLeftASI			pRightCSI			pLeftCSI			pRightIschialTub			pLeftIschialTub			pSacrum			pL5SpinalProcess			pL3SpinalProcess			pT12SpinalProcess			pIJ			pT4SpinalProcess			pT8SpinalProcess			pPX			pC7SpinalProcess			pTopOfHead			pRightAuricularis			pLeftAuricularis			pBackOfHead			pRightAcromion			pLeftAcromion			pRightArmLatEpicondyle			pRightArmMedEpicondyle			pLeftArmLatEpicondyle			pLeftArmMedEpicondyle			pRightUlnarStyloid			pRightRadialStyloid			pRightOlecranon			pLeftUlnarStyloid			pLeftRadialStyloid			pLeftOlecranon			pRightTopOfHand			pRightPinky			pRightBallHand			pLeftTopOfHand			pLeftPinky			pLeftBallHand			pRightGreaterTrochanter			pRightKneeLatEpicondyle			pRightKneeMedEpicondyle			pRightPatella			pLeftGreaterTrochanter			pLeftKneeLatEpicondyle			pLeftKneeMedEpicondyle			pLeftPatella			pRightTibialTub			pRightLatMalleolus			pRightMedMalleolus			pLeftTibialTub			pLeftLatMalleolus			pLeftMedMalleolus			pRightHeelFoot			pRightFirstMetatarsal			pRightFifthMetatarsal			pRightPivotFoot			pRightHeelCenter			pRightToe			pLeftHeelFoot			pLeftFirstMetatarsal			pLeftFifthMetatarsal			pLeftPivotFoot			pLeftHeelCenter			pLeftToe			
		X1	Y1	Z1	X2	Y2	Z2	X3	Y3	Z3	X4	Y4	Z4	X5	Y5	Z5	X6	Y6	Z6	X7	Y7	Z7	X8	Y8	Z8	X9	Y9	Z9	X10	Y10	Z10	X11	Y11	Z11	X12	Y12	Z12	X13	Y13	Z13	X14	Y14	Z14	X15	Y15	Z15	X16	Y16	Z16	X17	Y17	Z17	X18	Y18	Z18	X19	Y19	Z19	X20	Y20	Z20	X21	Y21	Z21	X22	Y22	Z22	X23	Y23	Z23	X24	Y24	Z24	X25	Y25	Z25	X26	Y26	Z26	X27	Y27	Z27	X28	Y28	Z28	X29	Y29	Z29	X30	Y30	Z30	X31	Y31	Z31	X32	Y32	Z32	X33	Y33	Z33	X34	Y34	Z34	X35	Y35	Z35	X36	Y36	Z36	X37	Y37	Z37	X38	Y38	Z38	X39	Y39	Z39	X40	Y40	Z40	X41	Y41	Z41	X42	Y42	Z42	X43	Y43	Z43	X44	Y44	Z44	X45	Y45	Z45	X46	Y46	Z46	X47	Y47	Z47	X48	Y48	Z48	X49	Y49	Z49	X50	Y50	Z50	X51	Y51	Z51	X52	Y52	Z52	X53	Y53	Z53	X54	Y54	Z54	X55	Y55	Z55	X56	Y56	Z56	X57	Y57	Z57	X58	Y58	Z58	X59	Y59	Z59	X60	Y60	Z60	X61	Y61	Z61	X62	Y62	Z62	X63	Y63	Z63	X64	Y64	Z64	
352	5.85	0.0	1249.98473	7.653948992887842E-14	96.74804000000002	1336.74029	129.3824600000001	87.50643999999998	1321.2606	-144.51558999999992	70.17843	1412.868	101.94645000000008	62.554109999999994	1400.10304	-124.12629999999992	-67.92579	1212.61399	61.16787000000008	-71.73795	1206.20263	-51.86849999999992	-59.83939	1288.74171	-0.17327999999991742	3.3500799999999997	1376.19039	-6.642399999999916	74.16387	1472.99619	-13.977929999999915	140.2991	1560.67591	-20.50480999999991	410.32723	1588.40072	-37.08193999999993	291.57261	1696.52749	-32.807689999999916	214.80954	1640.15371	-26.916169999999916	308.72734	1507.01685	-29.111049999999924	338.30047	1728.98863	-35.06033999999991	584.76251	1830.81955	-80.80627999999993	520.93768	1770.51809	8.028640000000076	487.3791	1772.07761	-132.3859799999999	472.07269	1817.36147	-54.005619999999915	342.97904	1727.94895	174.3775200000001	325.76655	1693.17741	-250.50522999999993	434.6442	1441.97906	165.02040000000005	416.27651	1436.08753	107.54917000000006	419.91539	1415.58272	-232.25306999999995	405.76418	1411.36624	-173.51111999999995	520.07128	1199.73351	122.79782000000004	569.4561	1221.10472	125.05046000000004	398.54418	1434.52801	137.75766000000004	511.86935	1175.82086	-218.50617999999994	560.67658	1198.34727	-220.81657999999993	385.9525	1408.2472	-203.89288999999994	723.27105	1114.30643	181.42424	628.02477	1114.30643	150.86919000000003	574.25018	1169.81381	121.41158000000004	687.97967	1077.97537	-317.33358	599.08699	1086.11953	-272.10748	559.34809	1143.07092	-227.17017999999996	33.38530000000001	1239.7612	164.6738300000001	403.8581	1061.456	127.41862000000005	404.20466	1064.6328	47.478740000000045	420.72403	1104.6605	86.52452000000004	1.6172799999999898	1218.9676	-167.8506399999999	196.38409	855.25271	-180.73111999999995	209.9577	852.65351	-101.94644999999996	241.09035	877.72136	-144.40006999999997	423.49651	1009.06766	74.74147000000004	112.22773	723.67537	82.82788000000004	108.41557	733.78337	16.80817000000004	251.37163	810.08437	-150.06054999999998	95.65059999999998	417.60499	-139.66373999999996	112.57429	418.29811	-74.97250999999997	32.69217	678.68031	19.75393000000004	183.67688	603.18795	-17.616809999999976	169.23688	579.21754	59.14627000000003	196.44185	579.50634	19.753930000000025	67.57923	658.52206	20.100490000000036	267.891	536.18632	19.696170000000013	44.47521999999999	351.52752	-69.13874999999997	208.05161	297.69518	-85.2538	176.2836	283.60173	-159.18662999999998	212.96122	282.44653	-128.40053999999998	80.17092	337.78063	-81.90371999999999	286.43197	252.23803	-154.21927	
353	5.867	0.0	1249.98473	7.653948992887842E-14	96.80580000000002	1337.02909	129.09366000000009	87.56419999999999	1320.74076	-144.74662999999993	70.35171	1413.09904	101.48437000000008	62.72738999999999	1399.64096	-124.58837999999992	-67.98355	1212.84503	61.283390000000075	-71.79571	1206.14487	-51.75297999999992	-59.78163	1288.79947	-0.2887999999999174	3.4655999999999993	1376.19039	-6.988959999999915	74.51043	1472.82291	-14.555529999999914	140.81894	1560.38711	-21.19792999999991	410.90483	1587.4188	-38.468179999999926	292.43901	1695.89213	-33.90513999999992	215.50266	1639.69163	-27.782569999999915	309.0739	1506.32373	-30.208489999999927	339.16687	1728.17999	-36.21553999999991	585.74443	1829.77987	-81.96147999999992	521.80408	1769.47841	6.757920000000077	488.41878	1771.03793	-133.65669999999992	473.05462	1816.32179	-55.276349999999915	344.24976	1727.37135	173.10680000000008	326.22863	1692.65757	-251.6026699999999	435.56836	1441.28594	164.09623000000005	416.91187	1435.22113	106.74053000000006	420.03091	1414.8896	-233.52378999999993	405.64866	1410.5576	-174.78183999999993	520.64888	1198.86711	121.81590000000004	570.0337	1220.23832	123.95302000000004	399.35282	1433.77713	136.89126000000005	512.10039	1175.12774	-219.54585999999995	560.90762	1197.71191	-221.91401999999994	385.9525	1407.49632	-205.10584999999995	723.84865	1113.38227	180.21128	628.60237	1113.44003	149.77175000000003	574.77002	1168.94741	120.31413000000005	688.21071	1077.34001	-318.43103	599.31803	1085.48417	-273.20492	559.57913	1142.43556	-228.26761999999997	34.48274000000001	1240.80089	164.38503000000009	407.72803	1069.31137	123.54870000000004	407.20819	1072.25713	43.60882000000004	423.38099	1112.74691	82.36580000000004	1.1551999999999898	1218.56327	-167.7928799999999	192.22537	852.88455	-180.84663999999995	205.97225	850.28535	-102.11972999999996	237.27819	874.94888	-144.68886999999998	429.09924	1017.44286	70.75603000000002	129.49798	720.03649	83.63652000000003	124.47286	729.79793	17.67457000000004	245.71115	805.98341	-149.36742999999998	75.95442999999999	419.51107	-134.40757999999997	92.70484	420.43523	-69.65858999999998	52.4461	670.94047	20.10049000000004	207.53177	603.30347	-15.595209999999975	193.61161	578.87098	61.05235000000002	221.16314	580.48826	21.89105000000002	88.37284	652.6883	20.793610000000033	294.74941	540.92265	22.699690000000015	22.872969999999995	355.51296	-63.767069999999975	185.17864	297.57966	-78.20708	153.58391	283.60173	-152.19766999999996	190.03049	281.86893	-121.18054	58.279869999999995	340.84192	-76.12770999999998	262.92364	249.63883	-146.19063	
354	5.883	0.0	1249.98473	7.653948992887842E-14	97.03684000000001	1337.20237	128.86262000000008	87.44867999999998	1320.45196	-144.9776699999999	70.52499	1413.21456	101.08005000000009	62.611869999999996	1399.35216	-124.93493999999991	-67.92579	1213.01831	61.45667000000008	-71.85347	1206.08711	-51.579699999999924	-59.78163	1288.85723	-0.2887999999999174	3.5811199999999994	1376.19039	-7.162239999999915	74.74147	1472.70739	-15.017609999999914	141.1655	1560.15607	-21.89104999999991	411.25139	1586.49464	-39.96993999999993	293.13213	1695.31453	-35.06033999999991	216.0225	1639.28731	-28.706729999999915	309.24718	1505.68837	-31.363689999999924	339.91775	1727.42911	-37.60177999999991	586.55307	1828.74019	-83.40547999999993	522.4972	1768.55425	5.313920000000077	489.22742	1770.05601	-135.1584599999999	473.8055	1815.39763	-56.835869999999915	345.57824	1726.90927	171.7205600000001	326.40191	1692.02221	-252.81563999999992	436.49252	1440.7661	162.99879000000007	417.54723	1434.52801	105.75861000000006	420.08867	1414.312	-234.85226999999995	405.41762	1409.80672	-176.22583999999995	521.22648	1198.23175	120.77622000000004	570.66906	1219.48744	122.85558000000005	400.16146	1433.19953	135.90934000000004	512.27367	1174.60789	-220.81657999999993	561.0809	1197.19207	-223.18473999999995	385.89474	1406.8032	-206.49208999999993	724.42625	1112.63139	179.05608	629.12221	1112.68915	148.61655000000002	575.34762	1168.25429	119.21669000000004	688.38399	1076.87793	-319.75951	599.49131	1084.96433	-274.53341	559.81017	1141.91572	-229.53833999999998	35.69570000000001	1241.78281	164.03847000000007	410.55827	1074.79857	119.50549000000004	408.99875	1077.34001	39.56562000000004	425.11379	1118.17635	77.91828000000004	0.4620799999999897	1218.33223	-167.7928799999999	190.43481	852.07591	-181.77079999999995	204.70153	849.53447	-103.15940999999995	235.77643	874.08248	-145.95958999999996	433.72004	1023.56543	66.88611000000003	147.63463	713.45184	85.08052000000004	141.4543	722.46241	19.118570000000034	242.18779	803.44197	-149.48294999999996	56.60482999999999	424.53619	-129.49797999999998	73.12419	425.80691	-64.69122999999998	73.12419	660.13934	21.024650000000037	231.73323	600.58875	-13.458089999999977	218.50618	575.5209	63.13171000000002	246.23099	578.46666	24.14369000000002	109.85957	643.73549	22.006570000000032	321.72335	542.82873	25.52993000000001	1.4439999999999964	362.38641	-58.97298999999998	162.53671	300.6987	-70.81379	131.57734	286.66301	-145.03542999999996	167.56184	284.41037	-113.49845	36.67761999999999	346.7912	-70.69826999999998	240.05067	250.33195	-137.29558	
355	5.9	0.0	1249.98473	7.653948992887842E-14	97.03684000000001	1337.26013	128.80486000000008	87.33315999999999	1320.45196	-144.9776699999999	70.52499	1413.27232	101.08005000000009	62.554109999999994	1399.40992	-124.93493999999991	-67.86803	1212.96055	61.45667000000008	-71.91123	1206.02935	-51.52193999999992	-59.78163	1288.79947	-0.2887999999999174	3.5233599999999994	1376.19039	-7.162239999999915	74.74147	1472.70739	-15.133129999999914	141.33878	1560.04055	-22.17984999999991	411.42467	1585.85928	-40.83633999999993	293.47869	1694.91021	-35.75345999999991	216.3113	1639.11403	-29.226569999999914	309.24718	1505.28405	-31.999049999999926	340.37984	1726.90927	-38.41041999999992	587.07291	1827.87379	-84.61843999999994	523.01704	1767.80337	4.216480000000076	489.63174	1769.24737	-136.2558999999999	474.32534	1814.64675	-57.93330999999991	346.5024	1726.67823	170.8541600000001	326.40191	1691.38685	-253.5665199999999	437.2434	1440.53506	162.24791000000005	418.00931	1434.12369	105.12325000000006	420.08867	1413.84992	-235.71866999999995	405.35986	1409.22912	-177.09223999999995	521.74632	1197.88519	120.14085000000004	571.13114	1219.14088	122.16246000000004	400.73906	1432.91073	135.27398000000005	512.62023	1174.20357	-221.56745999999995	561.3697	1196.90327	-224.05113999999995	385.83698	1406.2256	-207.30072999999993	724.94609	1112.22707	178.36296	629.64205	1112.34259	147.98119000000003	575.86746	1167.90773	118.58133000000004	688.67279	1076.64689	-320.68367	599.83787	1084.67553	-275.34205	560.09898	1141.62692	-230.34697999999997	36.446580000000004	1242.12937	163.8074300000001	411.65571	1076.76241	116.21317000000005	409.34531	1079.01505	36.273300000000035	425.63363	1120.08243	74.33715000000004	0.17327999999998972	1218.50551	-167.90839999999992	191.41673	853.00007	-183.50359999999995	206.03001	850.28535	-104.89220999999996	236.81611	875.00664	-147.80790999999996	436.89684	1026.39567	63.824830000000034	165.0204	703.9792	87.15988000000003	157.85815	712.18112	21.19793000000003	241.03259	802.69109	-150.34934999999996	39.276819999999994	432.50708	-124.53061999999997	55.738429999999994	434.0666	-59.78162999999997	92.93588	646.73901	23.046250000000033	254.37516	595.04379	-11.14768999999998	242.24555	569.39834	65.44211000000001	269.85484	573.73034	26.56961000000002	130.4799	632.12573	24.085930000000033	347.02224	541.78905	28.071370000000012	-17.732330000000005	372.37889	-53.890099999999975	142.0319	306.87902	-63.362749999999984	111.47684999999998	292.67005	-137.75765999999996	147.11479	289.95533	-105.81637	17.270249999999997	355.85952	-65.09554999999997	218.96826	253.91308	-128.45829999999998	
